<?xml version="1.0" encoding="utf-8"?>
<!-- Generator: Adobe Illustrator 17.1.0, SVG Export Plug-In . SVG Version: 6.00 Build 0)  -->
<!DOCTYPE svg PUBLIC "-//W3C//DTD SVG 1.1//EN" "http://www.w3.org/Graphics/SVG/1.1/DTD/svg11.dtd">
<svg version="1.1" id="Layer_1" xmlns="http://www.w3.org/2000/svg" xmlns:xlink="http://www.w3.org/1999/xlink" x="0px" y="0px"
	 viewBox="0 0 351.5 68.3" enable-background="new 0 0 351.5 68.3" xml:space="preserve">
<g>
	<path fill="#FFFFFF" d="M149.1,67.4v-38c0-0.9,0.1-3.5,0.4-7.9h-0.2c-0.8,2-1.4,3.6-1.9,4.7l-19,41.2h-1.2l-19.1-41
		c-0.6-1.3-1.2-3-1.8-5h-0.2c0.2,2.4,0.3,4.8,0.3,7.1v38.9h-3.7V13.9h3.4l20,43.1c0.1,0.2,0.3,0.6,0.4,1c0.1,0.4,0.3,0.8,0.5,1.3
		c0.2,0.6,0.5,1.4,0.8,2.2h0.2l0.4-1.2c0-0.1,0.4-1.3,1.3-3.5l19.7-42.8h3.3v53.5H149.1z"/>
	<path fill="#FFFFFF" d="M188.5,67.4v-7.7h-0.1c-1.2,2.6-3,4.7-5.3,6.3c-2.3,1.6-4.9,2.3-7.7,2.3c-3.6,0-6.5-1-8.6-3.1
		c-2.1-2-3.2-4.6-3.2-7.7c0-6.7,4.4-10.7,13.3-12.1l11.8-1.8c0-8.2-3.1-12.3-9.3-12.3c-4.2,0-8.3,1.7-12.3,5.1v-4.1
		c1.4-1.1,3.3-2.1,5.8-2.9c2.4-0.8,4.7-1.2,6.9-1.2c3.9,0,7,1.2,9.1,3.7c2.2,2.4,3.2,6,3.2,10.6v24.9H188.5z M178,48.4
		c-4,0.6-6.8,1.5-8.4,2.8c-1.6,1.3-2.4,3.4-2.4,6.3c0,2.3,0.8,4.1,2.3,5.6c1.5,1.5,3.6,2.2,6.3,2.2c3.7,0,6.7-1.4,9.2-4.1
		c2.4-2.7,3.7-6.2,3.7-10.5v-3.7L178,48.4z"/>
	<path fill="#FFFFFF" d="M204.3,48.4c0,5.3,1.2,9.4,3.6,12.3c2.4,3,5.8,4.4,10,4.4c4.3,0,8.5-1.6,12.5-4.7v3.7
		c-4,2.8-8.4,4.2-13.3,4.2c-4.9,0-8.9-1.8-11.9-5.3c-3-3.5-4.6-8.5-4.6-15c0-5.6,1.6-10.3,4.8-14.1c3.2-3.8,7.3-5.7,12.4-5.7
		c4.8,0,8.4,1.7,10.9,5c2.5,3.3,3.8,7.9,3.8,13.7v1.5H204.3z M229,45.3c-0.2-4.4-1.2-7.8-3.2-10.3c-2-2.4-4.7-3.7-8.1-3.7
		c-3.6,0-6.6,1.2-8.9,3.6c-2.3,2.4-3.8,5.8-4.3,10.3H229z"/>
	<path fill="#FFFFFF" d="M240.1,65.7v-4.1c1.3,1.1,2.9,2,4.7,2.7c1.8,0.6,3.4,1,4.8,1c6,0,9-2.4,9-7.4c0-1.7-0.7-3.1-2-4.3
		c-1.3-1.2-3.5-2.4-6.4-3.7c-3.7-1.6-6.2-3.2-7.7-4.9c-1.5-1.7-2.2-3.8-2.2-6.2c0-3.1,1.2-5.6,3.6-7.5c2.4-1.9,5.3-2.9,8.8-2.9
		c3.3,0,6.1,0.7,8.4,2v3.9c-2.8-1.8-5.8-2.8-8.8-2.8c-2.5,0-4.5,0.7-6.1,2c-1.5,1.3-2.3,3-2.3,5.1c0,1.8,0.5,3.3,1.5,4.4
		c1,1.1,3.1,2.4,6.4,3.9c4,1.8,6.7,3.5,8.2,5c1.5,1.5,2.2,3.6,2.2,6.1c0,3-1.1,5.5-3.4,7.5c-2.3,2-5.4,3-9.4,3
		C245.6,68.3,242.5,67.5,240.1,65.7z"/>
	<path fill="#FFFFFF" d="M286.8,66.9c-1.8,0.8-3.5,1.3-5,1.3c-5.7,0-8.5-3.4-8.5-10.2V32.3h-6.9v-3.1h6.9v-9.9
		c0.5-0.2,1.1-0.4,1.7-0.6c0.6-0.2,1.2-0.4,1.7-0.6v11.1h10.1v3.1h-10.1v25.2c0,2.6,0.4,4.5,1.3,5.7c0.8,1.2,2.2,1.8,4.2,1.8
		c1.4,0,2.9-0.5,4.6-1.4V66.9z"/>
	<path fill="#FFFFFF" d="M312.5,32.8c-1.1-0.8-2.5-1.2-4-1.2c-3,0-5.5,1.6-7.6,4.7c-2,3.1-3.1,7.5-3.1,13.3v18h-3.4V29.2h3.4v8.5
		h0.2c0.9-2.9,2.3-5.2,4.1-6.8c1.9-1.6,4.1-2.4,6.6-2.4c1.4,0,2.7,0.2,3.8,0.7V32.8z"/>
	<path fill="#FFFFFF" d="M333.5,68.3c-5.6,0-10-1.8-13.2-5.5c-3.2-3.7-4.9-8.4-4.9-14.3c0-6.3,1.7-11.3,5.1-14.9
		c3.4-3.6,7.9-5.4,13.4-5.4c5.4,0,9.8,1.8,12.9,5.3c3.2,3.6,4.7,8.5,4.7,14.8c0,6-1.6,10.8-4.8,14.4
		C343.5,66.5,339.1,68.3,333.5,68.3z M333.7,31.4c-4.5,0-8.1,1.5-10.8,4.6c-2.7,3-4,7.3-4,12.7c0,5,1.3,9,3.9,12.1
		c2.6,3,6.2,4.6,10.7,4.6c4.6,0,8.2-1.5,10.6-4.5c2.5-3,3.7-7.1,3.7-12.4c0-5.4-1.2-9.6-3.7-12.5C341.8,32.8,338.3,31.4,333.7,31.4z
		"/>
</g>
<g>
	<polygon fill="#8575B6" points="72.7,0 27.2,40.6 0,22.7 27.2,68.2 72.7,0 61.1,27.3 72.7,68.2 	"/>
	<polygon fill="#8575B6" points="10,50 0,22.7 0,68.2 	"/>
</g>
</svg>
